HIERARCHY
ROOT root
{
	OFFSET	0	13.1	24.9
	CHANNELS 6  Xposition Yposition Zposition Xrotation Yrotation Zrotation
	JOINT spine_1
	{
		OFFSET	0	9.99999	0
		CHANNELS 3  Xrotation Yrotation Zrotation
		JOINT spine_2
		{
			OFFSET	0	112	-10
			CHANNELS 3  Xrotation Yrotation Zrotation
			JOINT spine_3
			{
				OFFSET	0	206.5	19.3
				CHANNELS 3  Xrotation Yrotation Zrotation
				JOINT spine_4
				{
					OFFSET	0	110.4	14.6
					CHANNELS 3  Xrotation Yrotation Zrotation
					JOINT neck_1
					{
						OFFSET	0	71.8	-50.3
						CHANNELS 3  Xrotation Yrotation Zrotation
						JOINT neck_2
						{
							OFFSET	0	86.2	-25.8
							CHANNELS 3  Xrotation Yrotation Zrotation
							JOINT head_ee
							{
								OFFSET	0	179.8	-8.7
								CHANNELS 3  Xrotation Yrotation Zrotation
								End Site
								{
									OFFSET	1	0	0
								}
							}
						}
					}
					JOINT left_clavicle
					{
						OFFSET	-43.2	22.4	-70.8
						CHANNELS 3  Xrotation Yrotation Zrotation
						JOINT left_shoulder
						{
							OFFSET	-93.9	-5.79999	48.7
							CHANNELS 3  Xrotation Yrotation Zrotation
							JOINT left_elbow
							{
								OFFSET	-291.4	-30.8	15.2
								CHANNELS 3  Xrotation Yrotation Zrotation
								JOINT left_lowarm_twist
								{
									OFFSET	-110.7	-3.89999	13.6
									CHANNELS 3  Xrotation Yrotation Zrotation
									JOINT left_hand
									{
										OFFSET	-110.7	-3.89999	13.6
										CHANNELS 3  Xrotation Yrotation Zrotation
										JOINT left_ee
										{
											OFFSET	-80.8	-5.10001	12.1
											CHANNELS 3  Xrotation Yrotation Zrotation
											End Site
											{
												OFFSET	1	0	0
											}
										}
									}
								}
							}
						}
					}
					JOINT right_clavicle
					{
						OFFSET	43.2	22.4	-70.8
						CHANNELS 3  Xrotation Yrotation Zrotation
						JOINT right_shoulder
						{
							OFFSET	93.9	-5.79999	48.7
							CHANNELS 3  Xrotation Yrotation Zrotation
							JOINT right_elbow
							{
								OFFSET	291.4	-30.8	15.2
								CHANNELS 3  Xrotation Yrotation Zrotation
								JOINT right_lowarm_twist
								{
									OFFSET	110.7	-3.89999	13.6
									CHANNELS 3  Xrotation Yrotation Zrotation
									JOINT right_hand
									{
										OFFSET	110.7	-3.89999	13.6
										CHANNELS 3  Xrotation Yrotation Zrotation
										JOINT right_ee
										{
											OFFSET	80.8	-5.10001	12.1
											CHANNELS 3  Xrotation Yrotation Zrotation
											End Site
											{
												OFFSET	1	0	0
											}
										}
									}
								}
							}
						}
					}
				}
			}
		}
	}
	JOINT left_hip
	{
		OFFSET	-82.8	-127.5	0.300001
		CHANNELS 3  Xrotation Yrotation Zrotation
		JOINT left_knee
		{
			OFFSET	-28.2	-396.7	2.2
			CHANNELS 3  Xrotation Yrotation Zrotation
			JOINT left_ankle
			{
				OFFSET	-11.7	-411.3	35.4
				CHANNELS 3  Xrotation Yrotation Zrotation
				JOINT left_toes
				{
					OFFSET	0	-60	-88.6
					CHANNELS 3  Xrotation Yrotation Zrotation
					JOINT left_foot_ee
					{
						OFFSET	-22.5	-16.5	-42.2
						CHANNELS 3  Xrotation Yrotation Zrotation
						End Site
						{
							OFFSET	1	0	0
						}
					}
				}
			}
		}
	}
	JOINT right_hip
	{
		OFFSET	82.8	-127.5	0.300001
		CHANNELS 3  Xrotation Yrotation Zrotation
		JOINT right_knee
		{
			OFFSET	28.2	-396.7	2.2
			CHANNELS 3  Xrotation Yrotation Zrotation
			JOINT right_ankle
			{
				OFFSET	11.7	-411.3	35.4
				CHANNELS 3  Xrotation Yrotation Zrotation
				JOINT right_toes
				{
					OFFSET	0	-60	-88.6
					CHANNELS 3  Xrotation Yrotation Zrotation
					JOINT right_foot_ee
					{
						OFFSET	22.5	-16.5	-42.2
						CHANNELS 3  Xrotation Yrotation Zrotation
						End Site
						{
							OFFSET	1	0	0
						}
					}
				}
			}
		}
	}
}
MOTION
Frames: 10
Frame Time: 0.02
2819.4430395 717.481 -1562.29824938 -18.2642681064 78.5735922487 12.5701944421 0.667912 0.270781 2.531 0.67147 0.109231 2.54309 0.677422 -0.398229 2.51411 0.668601 0.00369155 2.54543 -13.892 9.62512 -2.38849 -14.1791 19.8119 0.812419 -0.0 0.0 -0.0 2.14993 13.8631 5.14072 4.30374 -26.5121 60.1979 1.22761 -31.3034 0.34396 -34.3461 -2.37092 3.62574 -1.28718 18.248 -0.379699 -0.0 0.0 -0.0 11.0496 26.0996 -21.2121 -27.6962 26.8406 -58.561 0.526982 14.6308 -0.0676525 2.63485 -0.0853551 0.325684 -0.519169 -6.30034 0.760712 0.0 0.0 0.0 13.7598 -10.5896 12.1187 -5.41213 0.184695 0.80976 -8.0856 29.2451 1.28418 36.0035 -0.0 -0.0 -0.0 0.0 -0.0 31.556 20.0399 7.29056 -60.8336 2.29067 -8.61664 10.9036 -20.7885 1.58527 -36.9158 0.0 0.0 0.0 0.0 0.0 
2820.74539623 717.481 -1558.03837491 -19.3887678833 79.2208517392 13.7161228578 0.667912 0.270781 2.531 0.67147 0.109231 2.54309 0.677422 -0.398229 2.51411 0.668601 0.00369155 2.54543 -13.892 9.62512 -2.38849 -14.1791 19.8119 0.812419 -0.0 0.0 -0.0 2.14993 13.8631 5.14072 4.30374 -26.5121 60.1979 1.22761 -31.3034 0.34396 -34.3461 -2.37092 3.62574 -1.28718 18.248 -0.379699 -0.0 0.0 -0.0 11.0496 26.0996 -21.2121 -27.6962 26.8406 -58.561 0.526982 14.6308 -0.0676525 2.63485 -0.0853551 0.325684 -0.519169 -6.30034 0.760712 0.0 0.0 0.0 13.7598 -10.5896 12.1187 -5.41213 0.184695 0.80976 -8.0856 29.2451 1.28418 36.0035 -0.0 -0.0 -0.0 0.0 -0.0 31.556 20.0399 7.29056 -60.8336 2.29067 -8.61664 10.9036 -20.7885 1.58527 -36.9158 0.0 0.0 0.0 0.0 0.0 
2807.69603664 720.809 -1545.12513566 -22.3039680266 80.9935759179 17.1718299763 0.70727 0.280294 2.37641 0.710403 0.128553 2.38942 0.716731 -0.347089 2.36758 0.70891 0.031071 2.39267 -15.1372 9.70196 -2.1827 -15.4867 19.8447 1.262 -0.0 0.0 -0.0 2.30705 13.3973 5.37039 5.67525 -27.2014 59.4788 1.30574 -32.8942 0.385482 -32.5988 -2.20061 3.48004 -1.54596 20.0687 -1.09826 -0.0 0.0 -0.0 11.025 25.7725 -21.1922 -29.0464 26.4443 -59.4078 0.443572 12.393 -0.0481601 1.96597 -0.0651085 0.242646 -0.645398 -7.48075 1.07587 0.0 0.0 0.0 11.56 -9.48764 12.5625 -2.85898 0.107112 0.425642 -4.27762 29.0524 0.674467 38.497 -0.0 -0.0 -0.0 0.0 -0.0 34.4474 17.5477 7.22086 -57.1816 1.90346 -8.20767 7.22979 -21.7776 1.06753 -39.144 0.0 0.0 0.0 0.0 0.0 
2771.53414471 728.888 -1526.28093289 -25.0333172163 80.4235535027 19.0638798276 1.10067 0.317003 2.36197 1.10376 0.166106 2.37734 1.11131 -0.291564 2.36524 1.10352 0.0855314 2.3816 -16.2602 9.79401 -1.9148 -16.667 19.871 1.75425 -0.0 0.0 -0.0 2.41096 12.6933 5.50152 7.35512 -27.8892 57.264 1.38879 -34.5248 0.43158 -30.4372 -1.99623 3.29277 -1.86721 22.2019 -1.98044 -0.0 0.0 -0.0 10.7674 25.122 -20.6795 -31.7307 25.8406 -60.538 0.342071 9.61772 -0.0287778 1.15561 -0.039281 0.142363 -0.788429 -8.94337 1.3682 0.0 0.0 0.0 8.48755 -8.18081 14.0169 -1.39643 0.0549745 0.207246 -0.127027 28.9567 0.0198569 40.7013 -0.0 -0.0 -0.0 0.0 -0.0 37.6456 14.1447 6.57853 -52.8239 1.4769 -7.68904 2.5962 -23.0007 0.390228 -40.8427 0.0 0.0 0.0 0.0 0.0 
2731.30552051 718.801 -1520.9682603 -12.5527306598 81.0935593648 7.28176523259 1.441 0.291617 2.23198 1.44376 0.149036 2.246 1.44993 -0.269988 2.23469 1.44297 0.0862362 2.24928 -16.3824 9.89999 -1.18977 -16.7915 19.6637 2.49366 -0.0 0.0 -0.0 2.39873 12.3602 5.46184 6.86134 -28.2839 53.542 1.56151 -37.7202 0.533437 -28.9834 -1.86282 3.16258 -1.97962 21.125 -3.1573 -0.0 0.0 -0.0 10.3196 22.9776 -19.8785 -34.2583 25.3182 -61.6597 0.376281 10.5589 -0.0347705 0.365059 -0.0127195 0.044888 -0.726687 -9.56226 0.703093 0.0 0.0 0.0 5.25034 -8.04421 14.5941 -3.35624 0.123564 0.500184 2.75348 29.0135 -0.427819 40.2012 -0.0 -0.0 -0.0 0.0 -0.0 38.3175 12.9189 4.29394 -44.7254 0.794425 -6.64674 -2.91414 -24.7352 -0.447018 -40.203 0.0 0.0 0.0 0.0 0.0 
2715.27490101 723.238 -1509.86128107 -13.9171325724 80.5621493219 8.15496387058 1.40259 0.290741 2.26908 1.40544 0.145803 2.28298 1.41162 -0.281548 2.27024 1.40444 0.0804312 2.28621 -16.5819 10.1611 -0.464831 -17.0072 19.7593 3.30645 -0.0 0.0 -0.0 2.38501 12.2394 5.43181 6.2624 -28.5051 51.8217 1.75041 -40.925 0.65319 -28.3148 -1.8026 3.10158 -2.04 19.7563 -4.18378 -0.0 0.0 -0.0 9.95713 21.8857 -19.1597 -35.7765 24.9443 -61.9204 0.423139 11.8386 -0.0438716 -0.0508512 0.0017946 -0.00624633 -0.66578 -9.66274 0.26901 0.0 0.0 0.0 3.5929 -8.21183 14.2409 -5.93086 0.19836 0.888194 4.11733 29.0776 -0.637883 39.9437 -0.0 -0.0 -0.0 0.0 -0.0 38.7332 12.2396 2.85984 -39.7417 0.450419 -5.9621 -5.61361 -25.7071 -0.86966 -39.7067 0.0 0.0 0.0 0.0 0.0 
2699.82230735 711.893 -1511.31220206 -13.738342008 79.8426157749 8.61804923877 1.60456 0.333284 2.19684 1.60723 0.192853 2.21359 1.61491 -0.214514 2.21159 1.60811 0.137369 2.21772 -16.0217 10.6352 0.0898175 -16.446 20.3342 3.89911 -0.0 0.0 -0.0 1.78952 12.095 4.42451 6.40375 -28.8068 50.4553 2.02496 -45.0836 0.840569 -27.8063 -1.75727 3.05473 -2.14094 17.1149 -6.09846 -0.0 0.0 -0.0 9.92446 21.0697 -19.1528 -36.4692 24.8298 -62.241 0.462964 12.917 -0.0524086 -0.165486 0.00586013 -0.0203219 -0.171943 -10.5038 -3.24605 0.0 0.0 0.0 2.19991 -8.39189 14.0821 -5.73742 0.193347 0.858931 6.26562 29.135 -0.9657 39.762 -0.0 -0.0 -0.0 0.0 -0.0 38.2109 10.2136 3.016 -28.8567 -0.0861549 -4.38104 -13.9889 -25.4294 -2.18734 -40.0074 0.0 0.0 0.0 0.0 0.0 
2674.70086806 709.551 -1518.45483216 -14.8417555941 78.1968321646 9.16782705121 1.75448 0.418884 2.37546 1.75758 0.266923 2.39728 1.76893 -0.168715 2.40618 1.76092 0.213302 2.40264 -15.6726 10.8916 0.500967 -16.0888 20.5729 4.31098 -0.0 0.0 -0.0 1.28893 12.0558 3.58268 6.57663 -28.4101 49.4774 2.23684 -47.9281 0.994327 -27.4454 -1.72536 3.02123 -2.2091 15.2478 -7.4502 -0.0 0.0 -0.0 9.90338 20.697 -19.1347 -37.0066 24.8438 -62.3847 0.496623 13.8212 -0.0601915 0.0187641 -0.000660726 0.00230531 0.226954 -11.1222 -6.04666 0.0 0.0 0.0 1.07871 -8.5228 13.837 -5.62543 0.1904 0.841998 7.85178 28.757 -1.20186 39.6561 -0.0 -0.0 -0.0 0.0 -0.0 37.6762 8.92491 3.30789 -21.2287 -0.279012 -3.22715 -19.7742 -25.0413 -3.09758 -40.0528 0.0 0.0 0.0 0.0 0.0 
2658.08184148 711.001 -1521.14145002 -15.2476842484 78.0238839115 9.98541276144 1.79676 0.403369 2.42058 1.79998 0.248571 2.44132 1.81071 -0.192928 2.44635 1.80241 0.195729 2.44612 -15.3686 11.0856 0.818422 -15.775 20.7432 4.61917 -0.0 0.0 -0.0 0.953925 11.996 3.01601 6.78946 -28.244 48.8163 2.40273 -49.9567 1.11943 -27.1943 -1.70327 2.99781 -2.2621 13.9139 -8.45087 -0.0 0.0 -0.0 9.97578 20.1282 -19.3395 -37.535 24.8268 -62.9617 0.519981 14.4446 -0.065895 0.147584 -0.00517647 0.0181376 0.506859 -11.6199 -8.03358 0.0 0.0 0.0 -0.0526918 -8.50125 14.3766 -5.62315 0.190339 0.841653 8.9187 28.5416 -1.35904 39.5815 -0.0 -0.0 -0.0 0.0 -0.0 37.9294 7.89285 2.74921 -15.6684 -0.322071 -2.37544 -23.8136 -24.72 -3.72775 -40.0831 0.0 0.0 0.0 0.0 0.0 
2617.44424635 703.031 -1532.81232602 -14.6753467484 75.9032397676 7.52029275947 1.99178 0.544172 2.85259 1.99623 0.361629 2.8814 2.01441 -0.150174 2.9001 2.0028 0.309533 2.88746 -16.1906 11.5191 2.70932 -16.6071 20.5463 6.69841 -0.0 0.0 -0.0 0.947942 11.2516 2.9361 7.82446 -28.1713 48.3951 2.6634 -52.831 1.3232 -26.7051 -1.66056 2.9519 -2.31164 12.0023 -9.7263 -0.0 0.0 -0.0 10.0408 20.6816 -19.4436 -38.4686 24.8163 -62.9696 0.543377 15.0656 -0.0718539 0.590576 -0.0204337 0.0726574 0.839361 -12.4902 -10.4962 0.0 0.0 0.0 -2.23459 -8.64936 16.2864 -5.13102 0.176993 0.767306 11.3582 28.3986 -1.7163 38.8413 -0.0 -0.0 -0.0 0.0 -0.0 38.7841 6.72364 1.7629 -7.61579 -0.237834 -1.14374 -24.4009 -24.59 -3.81727 -40.0389 0.0 0.0 0.0 0.0 0.0 
